<svg width="50" height="50" viewBox="0 0 50 50" fill="none" xmlns="http://www.w3.org/2000/svg">
<path d="M34.8325 22.5001C31.6071 22.5001 31.1606 25.7143 31.1606 25.7143H38.0133C38.0133 25.7143 38.058 22.5001 34.8325 22.5001Z" fill="white"/>
<path d="M19.2857 25.7143H13.2142V31.2946H18.9843C19.8549 31.2723 21.4843 31.0268 21.4843 28.5826C21.4843 25.6808 19.2857 25.7143 19.2857 25.7143Z" fill="white"/>
<path d="M25 0C11.1942 0 0 11.1942 0 25C0 38.8058 11.1942 50 25 50C38.8058 50 50 38.8058 50 25C50 11.1942 38.8058 0 25 0ZM30.2679 15.3571H38.8728V17.9241H30.2679V15.3571ZM25.9152 28.8393C25.9152 35.2009 19.2857 35 19.2857 35H8.4375V14.1295H19.2857C22.5893 14.1295 25.1897 15.9487 25.1897 19.6875C25.1897 23.4263 22.0089 23.6607 22.0089 23.6607C26.2054 23.6607 25.9152 28.8393 25.9152 28.8393ZM42.0089 28.4933H31.1942C31.1942 32.3661 34.8661 32.1205 34.8661 32.1205C38.3371 32.1205 38.2143 29.8772 38.2143 29.8772H41.8862C41.8862 35.8371 34.7433 35.4241 34.7433 35.4241C26.183 35.4241 26.7299 27.4442 26.7299 27.4442C26.7299 27.4442 26.7187 19.4308 34.7433 19.4308C43.192 19.442 42.0089 28.4933 42.0089 28.4933Z" fill="white"/>
<path d="M20.7589 20.0112C20.7589 17.846 19.2857 17.846 19.2857 17.846H13.2142V22.5H18.9062C19.8883 22.5 20.7589 22.1763 20.7589 20.0112Z" fill="white"/>
</svg>
